<svg width="64" height="64" viewBox="0 0 64 64" fill="none" xmlns="http://www.w3.org/2000/svg">
<path d="M63 32C63 49.1208 49.1208 63 32 63C14.8792 63 1 49.1208 1 32C1 14.8792 14.8792 1 32 1C49.1208 1 63 14.8792 63 32Z" fill="white" stroke="black" stroke-width="2"/>
<path fill-rule="evenodd" clip-rule="evenodd" d="M40.3307 26.9176L38.5022 29.3556C37.5682 26.4069 34.8061 24.2635 31.5523 24.2635C27.5332 24.2635 24.2635 27.5333 24.2635 31.5523C24.2635 35.5714 27.5332 38.8411 31.5523 38.8411C34.8061 38.8411 37.5682 36.6977 38.5022 33.749L40.3307 36.1869C40.4633 36.3636 40.62 36.518 40.7945 36.6475C38.997 39.9009 35.5323 42.1046 31.5523 42.1046C25.7244 42.1046 21 37.3802 21 31.5523C21 25.7244 25.7244 21 31.5523 21C35.5323 21 38.997 23.2036 40.7944 26.457C40.62 26.5865 40.4633 26.741 40.3307 26.9176ZM37.267 32.3143H35.5042C35.1469 34.1707 33.5111 35.5778 31.5521 35.5778C29.3325 35.5778 27.5268 33.7721 27.5268 31.5527C27.5268 29.3331 29.3325 27.5274 31.5521 27.5274C33.5111 27.5274 35.1469 28.9345 35.5042 30.7909H37.267C36.8931 27.9706 34.4729 25.7873 31.5521 25.7873C28.373 25.7873 25.7867 28.3736 25.7867 31.5527C25.7867 34.7317 28.373 37.318 31.5521 37.318C34.4729 37.318 36.8931 35.1347 37.267 32.3143ZM46.8478 34.3586L44.7429 31.5521L46.8478 28.7456C47.0209 28.5148 47.0487 28.206 46.9198 27.9479C46.7907 27.6898 46.5269 27.5268 46.2385 27.5268H42.1591C41.9194 27.5268 41.6935 27.6397 41.5496 27.8315L39.102 31.0951C38.8989 31.3659 38.8989 31.7384 39.102 32.0091L41.5496 35.2727C41.6935 35.4645 41.9194 35.5774 42.1591 35.5774H46.2385C46.5269 35.5774 46.7907 35.4144 46.9198 35.1563C47.0487 34.8983 47.0209 34.5894 46.8478 34.3586ZM33.9347 32.3139H31.5518C31.1312 32.3139 30.7901 31.9728 30.7901 31.5521C30.7901 31.1315 31.1312 30.7904 31.5518 30.7904H33.9347C33.6117 29.7823 32.6658 29.0503 31.5518 29.0503C30.1723 29.0503 29.05 30.1726 29.05 31.5521C29.05 32.9317 30.1723 34.0539 31.5518 34.0539C32.6658 34.0539 33.6117 33.3219 33.9347 32.3139Z" fill="black"/>
</svg>
