<svg width="64" height="64" viewBox="0 0 64 64" fill="none" xmlns="http://www.w3.org/2000/svg">
<path d="M63 32C63 49.1208 49.1208 63 32 63C14.8792 63 1 49.1208 1 32C1 14.8792 14.8792 1 32 1C49.1208 1 63 14.8792 63 32Z" fill="white" stroke="black" stroke-width="2"/>
<path d="M29.33 31.5H31.5C32.6935 31.5 33.8381 31.9741 34.682 32.818C35.5259 33.6619 36 34.8065 36 36H28.999L29 37H37V36C36.9968 34.936 36.6894 33.895 36.114 33H39C39.9453 32.9997 40.8712 33.2674 41.6705 33.772C42.4698 34.2767 43.1097 34.9975 43.516 35.851C41.151 38.972 37.322 41 33 41C30.239 41 27.9 40.41 26 39.375V30.071C27.2166 30.2453 28.3655 30.7383 29.33 31.5ZM24 29C24.2449 29 24.4813 29.09 24.6644 29.2527C24.8474 29.4155 24.9643 29.6398 24.993 29.883L25 30V39C25 39.2652 24.8946 39.5196 24.7071 39.7071C24.5196 39.8946 24.2652 40 24 40H22C21.7348 40 21.4804 39.8946 21.2929 39.7071C21.1054 39.5196 21 39.2652 21 39V30C21 29.7348 21.1054 29.4804 21.2929 29.2929C21.4804 29.1054 21.7348 29 22 29H24ZM33.646 23.575L34 23.93L34.354 23.576C34.5858 23.3422 34.8615 23.1565 35.1653 23.0296C35.469 22.9026 35.7949 22.8369 36.1241 22.8363C36.4533 22.8356 36.7795 22.9 37.0837 23.0257C37.388 23.1514 37.6645 23.3359 37.8973 23.5687C38.13 23.8016 38.3145 24.0781 38.4401 24.3824C38.5657 24.6867 38.63 25.0129 38.6292 25.3421C38.6285 25.6713 38.5627 25.9971 38.4356 26.3009C38.3086 26.6046 38.1228 26.8803 37.889 27.112L34 31L30.11 27.11C29.8762 26.8782 29.6905 26.6025 29.5636 26.2987C29.4366 25.995 29.3709 25.6691 29.3703 25.3399C29.3696 25.0107 29.434 24.6845 29.5597 24.3803C29.6854 24.076 29.8699 23.7995 30.1027 23.5667C30.3356 23.334 30.6121 23.1495 30.9164 23.0239C31.2207 22.8983 31.5469 22.834 31.8761 22.8348C32.2053 22.8355 32.5311 22.9013 32.8349 23.0284C33.1386 23.1554 33.4143 23.3412 33.646 23.575Z" fill="black"/>
</svg>
