<svg width="64" height="64" viewBox="0 0 64 64" fill="none" xmlns="http://www.w3.org/2000/svg">
<path d="M63 32C63 49.1208 49.1208 63 32 63C14.8792 63 1 49.1208 1 32C1 14.8792 14.8792 1 32 1C49.1208 1 63 14.8792 63 32Z" fill="white" stroke="black" stroke-width="2"/>
<path d="M26.455 39L22 42.5V24C22 23.7348 22.1054 23.4804 22.2929 23.2929C22.4804 23.1054 22.7348 23 23 23H41C41.2652 23 41.5196 23.1054 41.7071 23.2929C41.8946 23.4804 42 23.7348 42 24V38C42 38.2652 41.8946 38.5196 41.7071 38.7071C41.5196 38.8946 41.2652 39 41 39H26.455Z" fill="black"/>
</svg>
