<svg width="64" height="64" viewBox="0 0 64 64" fill="none" xmlns="http://www.w3.org/2000/svg">
<path d="M63 32C63 49.1208 49.1208 63 32 63C14.8792 63 1 49.1208 1 32C1 14.8792 14.8792 1 32 1C49.1208 1 63 14.8792 63 32Z" fill="white" stroke="black" stroke-width="2"/>
<path d="M38 22C38.2652 22 38.5196 22.1054 38.7071 22.2929C38.8946 22.4804 39 22.7348 39 23L39.001 30.1C37.7013 29.8348 36.3495 30.0966 35.2429 30.828C34.1363 31.5594 33.3654 32.7004 33.1 34H32V42H26C25.7348 42 25.4804 41.8946 25.2929 41.7071C25.1054 41.5196 25 41.2652 25 41V23C25 22.7348 25.1054 22.4804 25.2929 22.2929C25.4804 22.1054 25.7348 22 26 22H38ZM38 32C38.7956 32 39.5587 32.3161 40.1213 32.8787C40.6839 33.4413 41 34.2044 41 35V36H42V41C42 41.2652 41.8946 41.5196 41.7071 41.7071C41.5196 41.8946 41.2652 42 41 42H35C34.7348 42 34.4804 41.8946 34.2929 41.7071C34.1054 41.5196 34 41.2652 34 41V36H35V35C35 34.2044 35.3161 33.4413 35.8787 32.8787C36.4413 32.3161 37.2044 32 38 32ZM38 34C37.487 34 37 34.45 37 35V36H39V35C39 34.7348 38.8946 34.4804 38.7071 34.2929C38.5196 34.1054 38.2652 34 38 34Z" fill="black"/>
</svg>
