<svg width="64" height="64" viewBox="0 0 64 64" fill="none" xmlns="http://www.w3.org/2000/svg">
<path d="M63 32C63 49.1208 49.1208 63 32 63C14.8792 63 1 49.1208 1 32C1 14.8792 14.8792 1 32 1C49.1208 1 63 14.8792 63 32Z" fill="white" stroke="black" stroke-width="2"/>
<path d="M32 40H34V27L40.394 29.74C40.574 29.8171 40.7274 29.9455 40.8351 30.109C40.9428 30.2726 41.0002 30.4641 41 30.66V40H43V42H21V40H23V26.65C23 26.4565 23.0561 26.2672 23.1615 26.1049C23.2669 25.9427 23.4172 25.8145 23.594 25.736L31.297 22.312C31.3732 22.2781 31.4567 22.2639 31.5398 22.2705C31.6229 22.2771 31.7031 22.3045 31.7729 22.35C31.8428 22.3955 31.9002 22.4578 31.9398 22.5311C31.9795 22.6045 32.0002 22.6866 32 22.77V40Z" fill="black"/>
</svg>
