<svg width="64" height="64" viewBox="0 0 64 64" fill="none" xmlns="http://www.w3.org/2000/svg">
<path d="M63 32C63 49.1208 49.1208 63 32 63C14.8792 63 1 49.1208 1 32C1 14.8792 14.8792 1 32 1C49.1208 1 63 14.8792 63 32Z" fill="white" stroke="black" stroke-width="2"/>
<path d="M23 23C32.941 23 41 31.059 41 41H38C38 32.716 31.284 26 23 26V23ZM23 30C29.075 30 34 34.925 34 41H31C31 38.8783 30.1571 36.8434 28.6569 35.3431C27.1566 33.8429 25.1217 33 23 33V30ZM23 37C24.0609 37 25.0783 37.4214 25.8284 38.1716C26.5786 38.9217 27 39.9391 27 41H23V37Z" fill="black"/>
</svg>
